<?xml version="1.0" standalone="no"?>
<!DOCTYPE svg PUBLIC "-//W3C//DTD SVG 20010904//EN"
 "http://www.w3.org/TR/2001/REC-SVG-20010904/DTD/svg10.dtd">
<svg version="1.0" xmlns="http://www.w3.org/2000/svg"
 width="129.000000pt" height="129.000000pt" viewBox="0 0 129.000000 129.000000"
 preserveAspectRatio="xMidYMid meet">
<metadata>
Created by potrace 1.11, written by Peter Selinger 2001-2013
</metadata>
<g transform="translate(0.000000,129.000000) scale(0.100000,-0.100000)"
fill="#000000" stroke="none">
<path d="M603 1172 c-21 -13 -43 -90 -34 -115 10 -24 -23 -117 -40 -117 -5 0
-9 -6 -9 -13 0 -7 -13 -28 -30 -47 -16 -19 -29 -40 -30 -45 0 -6 -9 -17 -20
-25 -11 -8 -20 -19 -20 -25 0 -7 -11 -22 -25 -35 -14 -13 -23 -25 -21 -28 4
-3 -2 -11 -46 -64 -10 -12 -18 -27 -18 -35 0 -7 -3 -13 -8 -13 -4 0 -14 -15
-22 -32 -14 -33 -16 -39 -19 -58 -2 -21 -21 -9 -35 23 -35 75 -36 190 -2 271
8 20 15 39 15 42 -1 21 119 146 132 138 4 -2 9 2 12 10 6 14 88 46 126 49 12
1 21 5 21 9 0 4 8 5 18 1 12 -4 14 -3 7 5 -8 8 -23 8 -58 -3 -26 -8 -47 -12
-47 -9 0 2 -13 -2 -30 -11 -16 -8 -31 -14 -32 -13 -8 8 -114 -68 -153 -108
-43 -45 -88 -126 -101 -181 -7 -30 -8 -195 -1 -228 2 -11 12 -37 21 -57 9 -21
16 -42 16 -48 0 -5 4 -10 9 -10 5 0 16 -15 24 -33 9 -18 33 -50 55 -72 39 -41
52 -51 113 -95 l34 -24 -17 24 c-108 151 -81 265 117 503 47 56 73 95 68 101
-3 3 -1 6 5 6 17 0 70 116 68 150 -2 27 4 35 27 31 22 -3 33 -7 37 -12 3 -3
22 -13 43 -23 57 -26 128 -104 166 -182 29 -60 33 -79 36 -161 1 -51 -2 -93
-7 -93 -5 0 -7 -4 -3 -9 6 -10 -37 -115 -51 -124 -5 -3 -9 28 -9 69 -1 41 2
74 5 74 4 0 7 6 8 13 0 6 3 22 5 34 4 13 0 24 -9 27 -10 4 -12 2 -8 -6 5 -7 3
-8 -5 -3 -7 4 -11 20 -9 34 2 15 -2 33 -9 40 -7 7 -10 17 -7 23 4 7 2 8 -5 4
-6 -4 -9 -11 -7 -15 3 -4 1 -13 -4 -21 -6 -10 -11 -2 -16 26 -5 21 -8 46 -8
54 0 8 -9 24 -19 34 -20 19 -20 19 -15 -2 3 -12 0 -26 -7 -32 -12 -10 -28 8
-81 96 -10 16 -11 14 -8 -14 2 -19 7 -39 11 -45 4 -7 8 -18 9 -25 2 -8 11 -30
20 -50 10 -20 19 -39 19 -42 2 -17 41 -100 47 -100 4 0 5 -7 2 -15 -4 -8 -2
-15 3 -15 5 0 10 -6 11 -12 0 -7 3 -23 6 -35 13 -52 16 -69 16 -98 -1 -53 -4
-75 -11 -75 -4 0 -10 -12 -14 -27 -7 -30 -109 -133 -131 -133 -8 0 -14 -4 -14
-8 0 -14 81 -6 135 12 108 37 222 131 259 212 9 21 24 51 32 66 8 16 13 28 10
28 -3 0 1 17 8 38 18 52 10 211 -13 247 -3 6 -6 12 -7 15 -6 34 -72 132 -118
175 -27 27 -116 88 -116 80 0 -3 -11 2 -24 10 -29 19 -75 31 -154 39 -18 2
-34 5 -35 7 -23 40 -34 69 -29 74 5 5 13 35 9 35 -1 0 -7 -4 -14 -8z"/>
<path d="M560 720 c-8 -5 -10 -10 -5 -10 6 0 4 -4 -3 -8 -18 -12 -22 -92 -6
-124 8 -16 12 -28 9 -28 -4 0 3 -13 15 -30 39 -55 62 -119 55 -152 -20 -88
-126 -97 -161 -13 -13 32 -12 123 1 145 13 21 -11 9 -25 -12 -36 -56 -43 -77
-44 -133 -1 -44 5 -72 21 -105 22 -45 74 -87 93 -75 6 3 10 2 10 -3 0 -17 103
-10 140 9 76 40 100 82 95 165 -4 62 -22 99 -89 184 -63 79 -76 104 -84 157
-6 35 -10 41 -22 33z"/>
</g>
</svg>
