<?xml version="1.0" encoding="iso-8859-1"?>
<!-- Generator: Adobe Illustrator 19.0.0, SVG Export Plug-In . SVG Version: 6.00 Build 0)  -->
<svg xmlns="http://www.w3.org/2000/svg" xmlns:xlink="http://www.w3.org/1999/xlink" version="1.1" id="Layer_1" x="0px" y="0px" viewBox="0 0 490.672 490.672" style="enable-background:new 0 0 490.672 490.672;" xml:space="preserve" width="512px" height="512px">
<g>
	<g>
		<path d="M309.339,10.669c-99.989,0-181.333,81.344-181.333,181.333c0,72.363,42.965,137.707,109.44,166.443    c1.387,0.597,2.816,0.875,4.224,0.875c4.117,0,8.064-2.411,9.792-6.443c2.325-5.397-0.149-11.669-5.568-14.016    c-58.645-25.365-96.555-83.008-96.555-146.859c0-88.235,71.765-160,160-160s160,71.765,160,160    c0,53.291-26.432,102.912-70.677,132.757c-4.885,3.285-6.165,9.92-2.88,14.805c3.307,4.885,9.941,6.165,14.805,2.88    c50.155-33.813,80.085-90.048,80.085-150.443C490.672,92.013,409.328,10.669,309.339,10.669z" fill="#FFFFFF"/>
	</g>
</g>
<g>
	<g>
		<path d="M391.536,408.472l-74.667-74.667c-4.16-4.16-10.923-4.16-15.083,0l-77.781,77.781L18.203,205.805    c-4.16-4.16-10.923-4.16-15.083,0c-4.16,4.16-4.16,10.923,0,15.083l213.333,213.333c2.091,2.069,4.821,3.115,7.552,3.115    c2.731,0,5.461-1.045,7.552-3.136l77.781-77.781l67.115,67.136c4.16,4.16,10.923,4.16,15.083,0    C395.696,419.395,395.696,412.632,391.536,408.472z" fill="#FFFFFF"/>
	</g>
</g>
<g>
	<g>
		<path d="M441.413,352.813c-4.011-1.685-8.576-0.768-11.627,2.304L323.12,461.784c-3.051,3.051-3.968,7.637-2.304,11.627    c1.643,3.989,5.547,6.592,9.856,6.592h106.667c5.888,0,10.667-4.779,10.667-10.667V362.669    C448.005,358.36,445.403,354.456,441.413,352.813z M426.672,458.669h-70.251l70.251-70.251V458.669z" fill="#FFFFFF"/>
	</g>
</g>
<g>
	<g>
		<path d="M311.536,181.571l-2.347-0.448c-21.717-4.011-31.851-10.709-31.851-21.12c0-11.563,14.677-21.333,32.021-21.333    c16.725,0,31.083,9.045,32.021,20.181c0.491,5.867,5.739,10.304,11.52,9.728c5.867-0.491,10.219-5.653,9.728-11.52    c-1.92-22.656-24.811-39.723-53.269-39.723c-29.419,0-53.355,19.136-53.355,42.667c0,21.909,16.597,36.075,51.2,42.453    l2.304,0.427c21.696,4.011,31.808,10.709,31.808,21.12c0,11.563-14.656,21.333-32.021,21.333c-16.704,0-31.061-9.045-32-20.181    c-0.491-5.867-5.675-10.261-11.52-9.728c-5.867,0.491-10.219,5.653-9.728,11.52c1.899,22.635,24.811,39.723,53.269,39.723    c29.419,0,53.355-19.136,53.355-42.667C362.672,202.093,346.096,187.949,311.536,181.571z" fill="#FFFFFF"/>
	</g>
</g>
<g>
	<g>
		<path d="M309.339,96.003c-5.888,0-10.667,4.779-10.667,10.667v170.667c0,5.888,4.779,10.667,10.667,10.667    s10.667-4.779,10.667-10.667V106.669C320.005,100.781,315.227,96.003,309.339,96.003z" fill="#FFFFFF"/>
	</g>
</g>
<g>
</g>
<g>
</g>
<g>
</g>
<g>
</g>
<g>
</g>
<g>
</g>
<g>
</g>
<g>
</g>
<g>
</g>
<g>
</g>
<g>
</g>
<g>
</g>
<g>
</g>
<g>
</g>
<g>
</g>
</svg>
