<svg height="511pt" viewBox="-38 1 511 511.99877" width="511pt" xmlns="http://www.w3.org/2000/svg" xmlns:xlink="http://www.w3.org/1999/xlink"><linearGradient id="a"><stop offset="0" stop-color="#009fff"/><stop offset=".998" stop-color="#ec2f4b"/></linearGradient><linearGradient id="b" gradientTransform="matrix(.611912 0 0 -.611912 -37.900523 503.031088)" gradientUnits="userSpaceOnUse" x1="-59.3097" x2="778.0542" xlink:href="#a" y1="696.5565" y2="696.5565"/><linearGradient id="c" gradientTransform="matrix(.611912 0 0 -.611912 -37.900523 503.031088)" gradientUnits="userSpaceOnUse" x1="-59.3097" x2="778.0542" xlink:href="#a" y1="354.8948" y2="354.8948"/><linearGradient id="d" gradientTransform="matrix(.611912 0 0 -.611912 -37.900523 503.031088)" gradientUnits="userSpaceOnUse" x1="-59.3097" x2="778.0542" xlink:href="#a" y1="257.283" y2="257.283"/><g fill="url(#b)"><path d="m41.800781 153.601562h122.199219c22.796875-.019531 41.277344-18.496093 41.300781-41.292968v-71.007813c-.023437-22.800781-18.503906-41.2773435-41.300781-41.300781h-122.199219c-22.800781.0234375-41.277343 18.5-41.300781 41.300781v71.007813c.023438 22.796875 18.5 41.273437 41.300781 41.292968zm-24.234375-112.300781c.019532-13.375 10.859375-24.214843 24.234375-24.234375h122.199219c13.375.019532 24.214844 10.859375 24.234375 24.234375v71.007813c-.019531 13.375-10.859375 24.210937-24.234375 24.226562h-122.199219c-13.375-.015625-24.214843-10.851562-24.234375-24.226562zm0 0"/><path d="m119.964844 119.464844h34.132812c4.714844 0 8.535156-3.820313 8.535156-8.53125v-68.265625c0-4.714844-3.820312-8.535157-8.535156-8.535157h-34.132812c-4.710938 0-8.53125 3.820313-8.53125 8.535157v68.265625c0 4.710937 3.820312 8.53125 8.53125 8.53125zm8.535156-68.265625h17.066406v51.199219h-17.066406zm0 0"/><path d="m51.699219 119.464844h34.132812c4.714844 0 8.535157-3.820313 8.535157-8.53125v-68.265625c0-4.714844-3.824219-8.535157-8.535157-8.535157h-34.132812c-4.714844 0-8.53125 3.820313-8.53125 8.535157v68.265625c0 4.710937 3.820312 8.53125 8.53125 8.53125zm8.535156-68.265625h17.066406v51.199219h-17.066406zm0 0"/></g><path d="m427.167969 145.066406h-25.601563v-76.800781c0-4.710937-3.820312-8.53125-8.53125-8.53125h-34.136718c-4.710938 0-8.53125 3.820313-8.53125 8.53125v76.800781h-34.132813v-76.800781c0-4.710937-3.820313-8.53125-8.535156-8.53125h-34.132813c-4.710937 0-8.53125 3.820313-8.53125 8.53125v76.800781h-25.601562c-4.710938 0-8.53125 3.820313-8.53125 8.535156v51.199219c0 4.710938 3.820312 8.53125 8.53125 8.53125h8.535156v33.527344c-.070312 39.617187 15.222656 77.71875 42.664062 106.292969v47.914062c0 4.710938 3.820313 8.53125 8.535157 8.53125h8.53125v93.867188c0 4.714844 3.820312 8.535156 8.535156 8.535156h34.132813c4.710937 0 8.53125-3.820312 8.53125-8.535156v-93.863282h8.535156c4.710937 0 8.53125-3.820312 8.53125-8.535156v-47.914062c27.441406-28.574219 42.738281-66.675782 42.667968-106.292969v-33.527344h8.53125c4.714844 0 8.535157-3.820312 8.535157-8.53125v-51.199219c0-4.714843-3.820313-8.535156-8.53125-8.535156zm-59.734375-68.265625h17.066406v68.265625h-17.066406zm-85.335938 0h17.070313v68.265625h-17.070313zm59.734375 418.132813h-17.066406v-85.332032h17.066406zm17.066407-102.398438h-51.199219v-34.136718h51.199219zm42.667968-145.675781c.097656 35.183594-13.421875 69.039063-37.726562 94.472656h-61.082032c-24.304687-25.433593-37.824218-59.289062-37.726562-94.472656v-33.527344h136.535156zm17.066406-50.59375h-170.667968v-34.132813h170.667968zm0 0" fill="url(#c)"/><path d="m213.832031 315.734375h-98.507812l38.210937-99.328125c1.703125-4.394531-.476562-9.335938-4.871094-11.039062-3.339843-1.296876-7.136718-.367188-9.5 2.324218l-127.996093 145.066406c-3.117188 3.539063-2.777344 8.929688.761719 12.046876 1.558593 1.371093 3.5625 2.128906 5.636718 2.128906h98.824219l-38.597656 108.074218c-1.578125 4.441407.738281 9.320313 5.175781 10.902344 3.367188 1.199219 7.128906.171875 9.417969-2.574218l128-153.597657c3.019531-3.617187 2.535156-9-1.082031-12.019531-1.535157-1.285156-3.472657-1.988281-5.472657-1.984375zm-103.816406 119.78125 26.523437-74.238281c1.585938-4.4375-.722656-9.324219-5.160156-10.910156-.921875-.332032-1.898437-.5-2.878906-.5h-92.023438l84.085938-95.292969-25.597656 66.628906c-1.691406 4.398437.5 9.335937 4.898437 11.027344.96875.371093 2 .566406 3.035157.570312h92.714843zm0 0" fill="url(#d)"/></svg>