<svg height="512pt" viewBox="0 0 512 512" width="512pt" xmlns="http://www.w3.org/2000/svg"><path d="m433.039062 256-45.210937-45.910156 16.234375-62.390625-62.160156-17.082031-17.082032-62.15625-62.386718 16.230468-45.914063-45.210937-45.910156 45.210937-62.390625-16.230468-17.082031 62.15625-62.15625 17.082031 16.234375 62.390625-45.214844 45.910156 45.214844 45.910156-16.234375 62.390625 62.15625 17.082031 17.082031 62.15625 62.390625-16.230468 45.910156 45.210937 45.914063-45.210937 62.386718 16.234375 17.082032-62.160157 62.160156-17.082031-16.234375-62.386719zm0 0" fill="#ff0059"/><path d="m433.039062 256-45.210937-45.910156 16.234375-62.390625-62.160156-17.082031-17.082032-62.15625-62.386718 16.230468-45.914063-45.210937v433.039062l45.910157-45.210937 62.390624 16.230468 17.082032-62.15625 62.160156-17.082031-16.234375-62.390625zm0 0" fill="#d20041"/><path d="m216.519531 142.46875c-62.601562 0-113.53125 50.929688-113.53125 113.53125s50.929688 113.53125 113.53125 113.53125c62.601563 0 113.53125-50.929688 113.53125-113.53125s-50.929687-113.53125-113.53125-113.53125zm0 0" fill="#ffda2d"/><path d="m216.519531 142.46875v227.0625c62.601563 0 113.53125-50.929688 113.53125-113.53125s-50.929687-113.53125-113.53125-113.53125zm0 0" fill="#fdbf00"/><path d="m479.84375 90.207031c0-49.742187-40.464844-90.207031-90.203125-90.207031-49.742187 0-90.207031 40.464844-90.207031 90.207031v216.832031c-20.785156 22.632813-32.15625 51.71875-32.15625 82.601563 0 67.46875 54.890625 122.359375 122.363281 122.359375 67.46875 0 122.359375-54.890625 122.359375-122.359375 0-30.882813-11.371094-59.96875-32.15625-82.597656zm0 0" fill="#fff587"/><path d="m299.433594 93.71875h42.027344v29.40625h-42.027344zm0 0" fill="#fff587"/><path d="m299.433594 153.371094h42.027344v29.410156h-42.027344zm0 0" fill="#fff587"/><path d="m299.433594 213.027344h42.027344v29.40625h-42.027344zm0 0" fill="#fff587"/><path d="m299.433594 272.683594h42.027344v29.40625h-42.027344zm0 0" fill="#fff587"/><g fill="#ffda2d"><path d="m299.433594 93.71875h42.027344v29.40625h-42.027344zm0 0"/><path d="m299.433594 153.371094h42.027344v29.410156h-42.027344zm0 0"/><path d="m299.433594 213.027344h42.027344v29.40625h-42.027344zm0 0"/><path d="m299.433594 272.683594h42.027344v29.40625h-42.027344zm0 0"/><path d="m479.84375 307.039062v-216.832031c0-49.742187-40.464844-90.207031-90.203125-90.207031v512c67.46875 0 122.359375-54.890625 122.359375-122.359375 0-30.882813-11.371094-59.96875-32.15625-82.601563zm0 0"/></g><path d="m405.089844 331.246094v-116.101563h-30.070313v116.101563c-10.125 2.589844-19.707031 7.828125-27.621093 15.738281-23.519532 23.519531-23.519532 61.789063 0 85.308594 11.394531 11.394531 26.542968 17.667969 42.65625 17.667969 16.113281 0 31.261718-6.273438 42.652343-17.667969 23.519531-23.519531 23.519531-61.785157 0-85.308594-7.910156-7.910156-17.492187-13.148437-27.617187-15.738281zm0 0" fill="#ff0059"/><path d="m432.707031 346.984375c-7.910156-7.910156-17.492187-13.148437-27.617187-15.738281v-116.101563h-15.453125v234.804688c.140625.003906.277343.011719.417969.011719 16.113281 0 31.261718-6.273438 42.652343-17.667969 23.519531-23.519531 23.519531-61.789063 0-85.308594zm0 0" fill="#d20041"/></svg>