<?xml version="1.0" encoding="iso-8859-1"?>
<!-- Generator: Adobe Illustrator 19.0.0, SVG Export Plug-In . SVG Version: 6.00 Build 0)  -->
<svg xmlns="http://www.w3.org/2000/svg" xmlns:xlink="http://www.w3.org/1999/xlink" version="1.1" id="Capa_1" x="0px" y="0px" viewBox="0 0 512.001 512.001" style="enable-background:new 0 0 512.001 512.001;" xml:space="preserve" width="512px" height="512px">
<g>
	<g>
		<path d="M502.673,66.335L434.165,6.567c-10.035-8.757-25.172-8.756-35.208,0l-68.509,59.766    c-5.831,5.086-9.176,12.442-9.176,20.181v214.497H187.49c-14.766,0-26.778,12.013-26.778,26.778v48.333H26.931    c-14.766,0-26.778,12.012-26.778,26.778v82.321c0,14.766,12.012,26.778,26.778,26.778h458.138V512    c14.766,0,26.779-12.012,26.779-26.778V86.514C511.848,78.777,508.503,71.422,502.673,66.335z M160.713,481.984H30.169v-75.846    h130.544V481.984z M321.273,481.984h-0.001H190.729V331.027h130.544V481.984z M351.288,481.984V87.986l65.271-56.945    l65.272,56.946v393.997H351.288z" fill="#FFFFFF"/>
	</g>
</g>
<g>
	<g>
		<path d="M416.56,150.09c-8.288,0-15.008,6.72-15.008,15.008V364.21c0,8.288,6.72,15.008,15.008,15.008s15.008-6.72,15.008-15.008    V165.098C431.568,156.81,424.849,150.09,416.56,150.09z" fill="#FFFFFF"/>
	</g>
</g>
<g>
</g>
<g>
</g>
<g>
</g>
<g>
</g>
<g>
</g>
<g>
</g>
<g>
</g>
<g>
</g>
<g>
</g>
<g>
</g>
<g>
</g>
<g>
</g>
<g>
</g>
<g>
</g>
<g>
</g>
</svg>
