<?xml version="1.0" encoding="iso-8859-1"?>
<!-- Generator: Adobe Illustrator 16.0.0, SVG Export Plug-In . SVG Version: 6.00 Build 0)  -->
<!DOCTYPE svg PUBLIC "-//W3C//DTD SVG 1.1//EN" "http://www.w3.org/Graphics/SVG/1.1/DTD/svg11.dtd">
<svg xmlns="http://www.w3.org/2000/svg" xmlns:xlink="http://www.w3.org/1999/xlink" version="1.1" id="Capa_1" x="0px" y="0px" width="512px" height="512px" viewBox="0 0 91.885 91.885" style="enable-background:new 0 0 91.885 91.885;" xml:space="preserve">
<g>
	<g>
		<path d="M64.651,3.621H54.128V1.487C54.128,0.667,53.465,0,52.64,0H39.238c-0.823,0-1.488,0.667-1.488,1.487v2.134H27.23    c-2.501,0-4.538,2.036-4.538,4.538v79.188c0,2.505,2.036,4.538,4.538,4.538h37.424c2.506,0,4.538-2.039,4.538-4.538V8.158    C69.192,5.657,67.153,3.621,64.651,3.621z M61.746,84.438h-31.61V11.063h31.61V84.438z" fill="#FFFFFF"/>
		<path d="M59.09,53.475c-1.207,0-6.495,0-8.131,0c-0.567,0-0.94,0-0.94,0s0-1.529,0-2.163c0-0.637-0.552-0.048-0.552-0.048    l-4.642,4.764c0,0-0.368,0.322-0.036,0.65c0.457,0.451,4.791,4.65,4.791,4.65s0.575,0.586,0.575-0.185c0-0.77,0-1.995,0-1.995    s0.339,0,0.849,0c1.577,0,5.571,0,6.741,0c0,0,0.281,0.007,0.281-0.353s1.393-4.407,1.393-4.911    C59.419,53.393,59.09,53.475,59.09,53.475z" fill="#FFFFFF"/>
		<path d="M42.736,53.782l-2.424,0.031c-0.267,0.071-0.635,0.38-0.729,0.585l-1.668,3.539c-0.098,0.205-0.01,0.448,0.193,0.547    l4.454,0.182c0,0,0.567,0.106,0.549-0.462l0.032-3.881C43.153,53.998,43.129,53.741,42.736,53.782z" fill="#FFFFFF"/>
		<path d="M52.999,50.049l1.067,2.184c0.175,0.209,0.613,0.414,0.835,0.414h3.915c0.227,0,0.407-0.191,0.407-0.414l-1.738-4.106    c0,0-0.147-0.558-0.653-0.302l-3.519,1.629C53.02,49.584,52.804,49.71,52.999,50.049z" fill="#FFFFFF"/>
		<path d="M32.683,54.59c0.322,0.147,3.388,3.142,3.843,3.357c0.448,0.216,0.512-0.12,0.512-0.12    c0.515-1.095,2.772-5.876,3.474-7.357c0.237-0.513,0.398-0.852,0.398-0.852s1.384,0.66,1.959,0.927    c0.571,0.268,0.281-0.479,0.281-0.479l-2.334-6.23c0,0-0.13-0.467-0.571-0.312c-0.603,0.218-6.25,2.346-6.25,2.346    s-0.772,0.271-0.079,0.603c0.698,0.328,1.809,0.855,1.809,0.855s-0.144,0.302-0.361,0.76c-0.676,1.431-2.378,5.037-2.88,6.105    C32.486,54.193,32.36,54.439,32.683,54.59z" fill="#FFFFFF"/>
		<path d="M43.872,42.753c0.262,0.2,0.482,0.318,0.68-0.017l1.36-2.009c0.094-0.262,0.053-0.736-0.063-0.934l-1.942-3.396    c-0.111-0.193-0.361-0.264-0.56-0.151l-2.698,3.547c0,0-0.417,0.402,0.063,0.713L43.872,42.753z" fill="#FFFFFF"/>
		<path d="M48.536,42.799c0.284,0.498,0.469,0.82,0.469,0.82s-1.327,0.756-1.878,1.076c-0.55,0.312,0.229,0.505,0.229,0.505    l6.447,1.653c0,0,0.455,0.161,0.579-0.287c0.167-0.623,1.656-6.468,1.656-6.468s0.219-0.789-0.448-0.411    c-0.668,0.385-1.735,0.996-1.735,0.996s-0.164-0.291-0.417-0.732c-0.787-1.374-2.772-4.837-3.354-5.86c0,0-0.13-0.241-0.438-0.063    c-0.309,0.176-4.522,0.979-4.957,1.227c-0.432,0.25-0.193,0.491-0.193,0.491C45.099,36.795,47.722,41.379,48.536,42.799z" fill="#FFFFFF"/>
	</g>
</g>
<g>
</g>
<g>
</g>
<g>
</g>
<g>
</g>
<g>
</g>
<g>
</g>
<g>
</g>
<g>
</g>
<g>
</g>
<g>
</g>
<g>
</g>
<g>
</g>
<g>
</g>
<g>
</g>
<g>
</g>
</svg>
