<?xml version="1.0"?>
<svg xmlns="http://www.w3.org/2000/svg" height="512px" viewBox="0 -81 512 512" width="512px"><path d="m504.394531 152.070312h-174.570312v-114.585937c.222656-3.390625-.042969-6.882813-.84375-10.398437-3.679688-16.199219-17.3125-27.085938-33.925781-27.085938h-46.035157c-.007812 0-.015625 0-.019531 0h-241.394531c-4.199219 0-7.605469 3.40625-7.605469 7.605469v47.585937c0 4.199219 3.40625 7.605469 7.605469 7.605469s7.601562-3.40625 7.601562-7.605469v-39.984375h56.496094l-32.210937 32.210938c-2.96875 2.972656-2.96875 7.785156 0 10.753906l39.816406 39.816406-39.816406 39.8125c-2.929688 2.929688-2.972657 7.667969-.097657 10.652344l32.785157 34.03125h-56.972657v-96.875c0-4.199219-3.402343-7.605469-7.601562-7.605469s-7.605469 3.40625-7.605469 7.605469v104.480469c0 4.199218 3.40625 7.601562 7.605469 7.601562h174.507812v111.414063c0 22.421875 18.242188 40.660156 40.660157 40.660156h55.113281c4.199219 0 7.605469-3.402344 7.605469-7.605469 0-4.199218-3.40625-7.601562-7.605469-7.601562h-55.113281c-14.035157 0-25.449219-11.417969-25.449219-25.453125v-147.6875c5.566406 3.746093 12.304687 5.863281 19.621093 5.863281h164.359376l37.769531 39.207031-39.914063 39.914063c-2.96875 2.96875-2.96875 7.785156 0 10.753906l39.816406 39.816406-37.589843 37.585938h-73.082031c-4.199219 0-7.601563 3.402344-7.601563 7.601562 0 4.203125 3.402344 7.605469 7.601563 7.605469h196.089843c4.203125 0 7.605469-3.402344 7.605469-7.605469v-182.484375c0-4.199219-3.402344-7.605469-7.605469-7.605469zm-411.101562 30.414063-37.769531-39.207031 39.914062-39.914063c2.96875-2.96875 2.96875-7.785156 0-10.753906l-39.8125-39.8125 37.585938-37.589844h19.050781l-32.210938 32.210938c-2.96875 2.972656-2.96875 7.785156 0 10.753906l39.8125 39.816406-39.8125 39.8125c-2.929687 2.929688-2.976562 7.667969-.101562 10.652344l32.785156 34.03125zm40.558593 0-37.769531-39.207031 39.914063-39.914063c2.96875-2.96875 2.96875-7.785156 0-10.753906l-39.816406-39.8125 37.585937-37.589844h115.210937.019532 46.058594c11.539062 0 17.5 8.214844 19.09375 15.246094.246093 1.085937.398437 2.242187.464843 3.433594v2.40625c-.363281 5.96875-3.351562 12.449219-11.101562 16.160156l-101.59375 48.660156c-12.605469 6.035157-19.976563 18.113281-19.8125 31.4375.011719.949219.007812 3.816407.007812 4.316407v45.617187zm63.996094-45.65625c-1.59375-7.035156.230469-17.015625 10.640625-22l101.59375-48.660156c1.597657-.765625 3.105469-1.632813 4.53125-2.582031v88.484374h-97.667969c-11.539062 0-17.5-8.210937-19.097656-15.242187zm205.046875 197.730469 32.210938-32.210938c2.96875-2.96875 2.96875-7.785156 0-10.753906l-39.816407-39.816406 39.816407-39.8125c2.929687-2.929688 2.976562-7.667969.097656-10.652344l-32.78125-34.03125h19.441406l37.769531 39.207031-39.914062 39.914063c-2.96875 2.96875-2.96875 7.785156 0 10.753906l39.816406 39.816406-37.589844 37.585938zm93.898438 0h-53.339844l32.210937-32.210938c2.96875-2.96875 2.96875-7.785156 0-10.753906l-39.816406-39.816406 39.816406-39.8125c2.929688-2.929688 2.972657-7.667969.097657-10.652344l-32.785157-34.03125h53.816407zm0 0" fill="#ba9811"/></svg>
