<svg viewBox="0 -31 512 512" xmlns="http://www.w3.org/2000/svg"><path d="m249.066406 184.746094-13.417968-26.835938 140.96875-69.492187 13.417968 26.835937zm0 0" fill="#444"/><path d="m376.617188 361.582031-140.96875-69.492187 13.417968-26.835938 140.96875 69.492188zm0 0" fill="#444"/><path d="m135 90c-74.398438 0-135 60.601562-135 135s60.601562 135 135 135 135-60.601562 135-135-60.601562-135-135-135zm0 0" fill="#ffe470"/><path d="m270 225c0 74.398438-60.601562 135-135 135v-270c74.398438 0 135 60.601562 135 135zm0 0" fill="#ffd400"/><path d="m215.699219 291.300781c-19.199219 23.398438-48 38.699219-80.699219 38.699219s-61.5-15.300781-80.699219-38.699219c14.398438-30.300781 45-51.300781 80.699219-51.300781s66.300781 21 80.699219 51.300781zm0 0" fill="#78b9eb"/><path d="m180 195c0 24.902344-20.097656 45-45 45s-45-20.097656-45-45 20.097656-45 45-45 45 20.097656 45 45zm0 0" fill="#78b9eb"/><path d="m215.699219 291.300781c-19.199219 23.398438-48 38.699219-80.699219 38.699219v-90c35.699219 0 66.300781 21 80.699219 51.300781zm0 0" fill="#5aaae7"/><path d="m180 195c0 24.902344-20.097656 45-45 45v-90c24.902344 0 45 20.097656 45 45zm0 0" fill="#5aaae7"/><g fill="#ff001e"><path d="m437 150c-41.351562 0-75-33.648438-75-75s33.648438-75 75-75 75 33.648438 75 75-33.648438 75-75 75zm0 0"/><path d="m437 450c-41.351562 0-75-33.648438-75-75s33.648438-75 75-75 75 33.648438 75 75-33.648438 75-75 75zm0 0"/></g></svg>