<?xml version="1.0"?>
<svg xmlns="http://www.w3.org/2000/svg" xmlns:xlink="http://www.w3.org/1999/xlink" version="1.1" id="Capa_1" x="0px" y="0px" viewBox="0 0 512 512" style="enable-background:new 0 0 512 512;" xml:space="preserve" width="512px" height="512px"><g><path d="M399.823,81.858c-0.988,0-1.99-0.193-2.956-0.601L302.9,41.586c-3.871-1.634-5.684-6.096-4.05-9.968  c1.636-3.871,6.102-5.684,9.968-4.05l93.967,39.671c3.871,1.634,5.684,6.096,4.05,9.968  C405.609,80.111,402.789,81.858,399.823,81.858z" data-original="#000000" class="active-path" data-old_color="#F9F9F9" fill="#FBFBFB"/><path d="M399.848,81.833c-1.935,0-3.869-0.733-5.352-2.201l-67.291-66.617c-2.986-2.956-3.011-7.773-0.055-10.759  c2.957-2.987,7.773-3.01,10.759-0.054L405.2,68.819c2.986,2.956,3.011,7.773,0.054,10.759  C403.767,81.08,401.808,81.833,399.848,81.833z" data-original="#000000" class="active-path" data-old_color="#F9F9F9" fill="#FBFBFB"/><path d="M372.826,109.13c-1.935,0-3.869-0.733-5.352-2.201l-67.292-66.617c-2.986-2.956-3.011-7.773-0.054-10.759  c2.957-2.987,7.774-3.01,10.759-0.054l67.292,66.617c2.986,2.956,3.011,7.773,0.054,10.759  C376.745,108.377,374.785,109.13,372.826,109.13z" data-original="#000000" class="active-path" data-old_color="#F9F9F9" fill="#FBFBFB"/><path d="M345.808,136.421c-1.935,0-3.869-0.733-5.352-2.201l-67.292-66.617c-2.986-2.956-3.011-7.773-0.054-10.759  s7.773-3.01,10.759-0.054l67.292,66.617c2.986,2.956,3.011,7.773,0.055,10.759C349.727,135.668,347.768,136.421,345.808,136.421z" data-original="#000000" class="active-path" data-old_color="#F9F9F9" fill="#FBFBFB"/><path d="M318.794,163.709c-1.935,0-3.869-0.733-5.352-2.201L246.15,94.89c-2.986-2.956-3.011-7.773-0.054-10.759  c2.957-2.987,7.774-3.01,10.759-0.054l67.292,66.617c2.986,2.956,3.011,7.773,0.054,10.759  C322.713,162.956,320.753,163.709,318.794,163.709z" data-original="#000000" class="active-path" data-old_color="#F9F9F9" fill="#FBFBFB"/><path d="M291.948,190.826c-1.935,0-3.869-0.733-5.352-2.201l-67.291-66.617c-2.986-2.956-3.011-7.773-0.054-10.759  c2.957-2.987,7.774-3.01,10.759-0.054l67.291,66.617c2.986,2.956,3.011,7.773,0.055,10.759  C295.866,190.073,293.907,190.826,291.948,190.826z" data-original="#000000" class="active-path" data-old_color="#F9F9F9" fill="#FBFBFB"/><path d="M264.933,218.114c-1.935,0-3.869-0.733-5.352-2.201l-67.292-66.617c-2.986-2.956-3.011-7.773-0.054-10.759  c2.957-2.987,7.774-3.01,10.759-0.054l67.292,66.617c2.986,2.956,3.011,7.773,0.055,10.759  C268.852,217.361,266.892,218.114,264.933,218.114z" data-original="#000000" class="active-path" data-old_color="#F9F9F9" fill="#FBFBFB"/><path d="M237.924,245.397c-1.935,0-3.869-0.733-5.352-2.201l-67.292-66.617c-2.986-2.956-3.011-7.773-0.054-10.759  c2.957-2.987,7.774-3.01,10.759-0.054l67.292,66.617c2.986,2.956,3.011,7.773,0.054,10.759  C241.843,244.644,239.884,245.397,237.924,245.397z" data-original="#000000" class="active-path" data-old_color="#F9F9F9" fill="#FBFBFB"/><path d="M210.909,272.685c-1.935,0-3.869-0.733-5.352-2.201l-67.291-66.617c-2.986-2.956-3.011-7.773-0.054-10.759  c2.957-2.987,7.773-3.01,10.759-0.054l67.291,66.617c2.986,2.956,3.011,7.773,0.054,10.759  C214.828,271.932,212.868,272.685,210.909,272.685z" data-original="#000000" class="active-path" data-old_color="#F9F9F9" fill="#FBFBFB"/><path d="M183.815,300.053c-1.935,0-3.869-0.733-5.352-2.201l-67.291-66.617c-2.986-2.956-3.011-7.773-0.054-10.759  c2.957-2.987,7.774-3.01,10.759-0.054l67.291,66.617c2.986,2.956,3.011,7.773,0.054,10.759  C187.734,299.3,185.775,300.053,183.815,300.053z" data-original="#000000" class="active-path" data-old_color="#F9F9F9" fill="#FBFBFB"/><path d="M156.801,327.341c-1.935,0-3.869-0.733-5.352-2.201l-67.291-66.617c-2.986-2.956-3.011-7.773-0.054-10.759  c2.957-2.987,7.774-3.01,10.759-0.054l67.291,66.617c2.986,2.956,3.011,7.773,0.054,10.759  C160.72,326.588,158.76,327.341,156.801,327.341z" data-original="#000000" class="active-path" data-old_color="#F9F9F9" fill="#FBFBFB"/><path d="M129.876,354.538c-1.935,0-3.869-0.733-5.352-2.201L57.232,285.72c-2.986-2.956-3.011-7.773-0.054-10.759  c2.957-2.987,7.774-3.01,10.759-0.055l67.292,66.617c2.986,2.956,3.011,7.773,0.054,10.759  C133.795,353.785,131.836,354.538,129.876,354.538z" data-original="#000000" class="active-path" data-old_color="#F9F9F9" fill="#FBFBFB"/><path d="M102.862,381.827c-1.935,0-3.869-0.733-5.352-2.201l-67.292-66.617c-2.986-2.956-3.011-7.773-0.054-10.759  c2.957-2.987,7.774-3.01,10.759-0.054l67.292,66.617c2.986,2.956,3.011,7.773,0.054,10.759  C106.781,381.074,104.821,381.827,102.862,381.827z" data-original="#000000" class="active-path" data-old_color="#F9F9F9" fill="#FBFBFB"/><path d="M75.684,409.28c-1.935,0-3.869-0.733-5.352-2.201L3.04,340.462c-2.986-2.956-3.011-7.773-0.054-10.759  c2.957-2.987,7.773-3.01,10.759-0.055l67.292,66.617c2.986,2.956,3.011,7.773,0.054,10.759  C79.603,408.527,77.643,409.28,75.684,409.28z" data-original="#000000" class="active-path" data-old_color="#F9F9F9" fill="#FBFBFB"/><path d="M372.812,109.143c-0.987,0-1.99-0.193-2.956-0.601l-93.968-39.671c-3.871-1.634-5.684-6.096-4.05-9.968  c1.634-3.87,6.099-5.684,9.968-4.05l93.968,39.671c3.871,1.634,5.684,6.096,4.05,9.968  C378.597,107.396,375.778,109.143,372.812,109.143z" data-original="#000000" class="active-path" data-old_color="#F9F9F9" fill="#FBFBFB"/><path d="M345.799,136.428c-0.987,0-1.99-0.193-2.956-0.601l-93.967-39.67c-3.871-1.634-5.684-6.096-4.05-9.968  c1.635-3.87,6.099-5.685,9.968-4.05l93.967,39.67c3.871,1.634,5.684,6.096,4.05,9.968  C351.585,134.681,348.765,136.428,345.799,136.428z" data-original="#000000" class="active-path" data-old_color="#F9F9F9" fill="#FBFBFB"/><path d="M318.788,163.714c-0.988,0-1.99-0.193-2.956-0.601l-93.967-39.671c-3.871-1.634-5.684-6.096-4.05-9.968  c1.635-3.872,6.1-5.684,9.968-4.05l93.967,39.671c3.871,1.634,5.684,6.096,4.05,9.968  C324.573,161.967,321.754,163.714,318.788,163.714z" data-original="#000000" class="active-path" data-old_color="#F9F9F9" fill="#FBFBFB"/><path d="M291.776,190.999c-0.987,0-1.99-0.193-2.956-0.601l-93.968-39.67c-3.871-1.634-5.684-6.096-4.05-9.968  c1.635-3.87,6.098-5.685,9.968-4.05l93.968,39.67c3.871,1.634,5.684,6.096,4.05,9.968  C297.561,189.252,294.742,190.999,291.776,190.999z" data-original="#000000" class="active-path" data-old_color="#F9F9F9" fill="#FBFBFB"/><path d="M264.764,218.285c-0.988,0-1.99-0.193-2.956-0.601l-93.967-39.671c-3.871-1.634-5.684-6.096-4.05-9.968  c1.635-3.872,6.1-5.683,9.968-4.05l93.967,39.671c3.871,1.634,5.684,6.096,4.05,9.968  C270.549,216.538,267.73,218.285,264.764,218.285z" data-original="#000000" class="active-path" data-old_color="#F9F9F9" fill="#FBFBFB"/><path d="M237.752,245.57c-0.987,0-1.99-0.193-2.956-0.601l-93.968-39.671c-3.871-1.634-5.684-6.096-4.05-9.968  c1.634-3.87,6.099-5.684,9.968-4.05l93.968,39.671c3.871,1.634,5.684,6.096,4.05,9.968  C243.537,243.823,240.718,245.57,237.752,245.57z" data-original="#000000" class="active-path" data-old_color="#F9F9F9" fill="#FBFBFB"/><path d="M210.74,272.856c-0.988,0-1.99-0.193-2.956-0.601l-93.967-39.671c-3.871-1.634-5.684-6.096-4.05-9.968  c1.635-3.871,6.1-5.683,9.968-4.05l93.967,39.671c3.871,1.634,5.684,6.096,4.05,9.968  C216.525,271.109,213.705,272.856,210.74,272.856z" data-original="#000000" class="active-path" data-old_color="#F9F9F9" fill="#FBFBFB"/><path d="M183.728,300.141c-0.988,0-1.99-0.193-2.956-0.601l-93.967-39.671c-3.871-1.634-5.684-6.096-4.05-9.968  c1.635-3.872,6.101-5.683,9.968-4.05l93.967,39.671c3.871,1.634,5.684,6.096,4.05,9.968  C189.513,298.394,186.694,300.141,183.728,300.141z" data-original="#000000" class="active-path" data-old_color="#F9F9F9" fill="#FBFBFB"/><path d="M156.716,327.425c-0.987,0-1.99-0.193-2.956-0.601l-93.968-39.67c-3.871-1.634-5.684-6.096-4.05-9.968  c1.635-3.87,6.098-5.685,9.968-4.05l93.968,39.67c3.871,1.634,5.684,6.096,4.05,9.968  C162.502,325.679,159.682,327.425,156.716,327.425z" data-original="#000000" class="active-path" data-old_color="#F9F9F9" fill="#FBFBFB"/><path d="M129.704,354.711c-0.988,0-1.99-0.193-2.956-0.601L32.78,314.439c-3.871-1.634-5.684-6.096-4.05-9.968  c1.635-3.871,6.101-5.683,9.968-4.05l93.967,39.671c3.871,1.634,5.684,6.096,4.05,9.968  C135.489,352.965,132.67,354.711,129.704,354.711z" data-original="#000000" class="active-path" data-old_color="#F9F9F9" fill="#FBFBFB"/><path d="M102.692,381.996c-0.987,0-1.99-0.193-2.956-0.601l-93.967-39.67c-3.871-1.634-5.684-6.096-4.05-9.968  s6.098-5.685,9.968-4.05l93.967,39.67c3.871,1.634,5.684,6.096,4.05,9.968C108.478,380.25,105.658,381.996,102.692,381.996z" data-original="#000000" class="active-path" data-old_color="#F9F9F9" fill="#FBFBFB"/><path d="M503.583,184.577c-0.987,0-1.99-0.193-2.956-0.601l-93.968-39.671c-3.871-1.634-5.684-6.096-4.05-9.968  c1.635-3.871,6.097-5.684,9.968-4.05l93.968,39.671c3.871,1.634,5.684,6.096,4.05,9.968  C509.368,182.831,506.549,184.577,503.583,184.577z" data-original="#000000" class="active-path" data-old_color="#F9F9F9" fill="#FBFBFB"/><path d="M503.608,184.553c-1.935,0-3.869-0.733-5.352-2.201l-67.292-66.617c-2.986-2.956-3.011-7.773-0.055-10.759  c2.957-2.986,7.774-3.01,10.759-0.054l67.292,66.617c2.986,2.956,3.011,7.773,0.054,10.759  C507.527,183.8,505.567,184.553,503.608,184.553z" data-original="#000000" class="active-path" data-old_color="#F9F9F9" fill="#FBFBFB"/><path d="M476.585,211.849c-1.935,0-3.869-0.733-5.352-2.201l-67.292-66.617c-2.986-2.956-3.011-7.773-0.055-10.759  c2.957-2.987,7.774-3.01,10.759-0.054l67.292,66.617c2.986,2.956,3.011,7.773,0.054,10.759  C480.504,211.097,478.545,211.849,476.585,211.849z" data-original="#000000" class="active-path" data-old_color="#F9F9F9" fill="#FBFBFB"/><path d="M449.568,239.14c-1.935,0-3.869-0.733-5.352-2.201l-67.292-66.617c-2.986-2.956-3.011-7.773-0.054-10.759  c2.957-2.987,7.774-3.01,10.759-0.054l67.292,66.617c2.986,2.956,3.011,7.773,0.055,10.759  C453.487,238.387,451.527,239.14,449.568,239.14z" data-original="#000000" class="active-path" data-old_color="#F9F9F9" fill="#FBFBFB"/><path d="M422.552,266.428c-1.935,0-3.869-0.733-5.352-2.201l-67.291-66.617c-2.986-2.956-3.011-7.773-0.054-10.759  c2.957-2.987,7.774-3.01,10.759-0.054l67.291,66.617c2.986,2.956,3.011,7.773,0.054,10.759  C426.471,265.675,424.512,266.428,422.552,266.428z" data-original="#000000" class="active-path" data-old_color="#F9F9F9" fill="#FBFBFB"/><path d="M395.707,293.546c-1.935,0-3.869-0.733-5.352-2.201l-67.292-66.617c-2.986-2.956-3.011-7.773-0.054-10.759  c2.957-2.987,7.774-3.01,10.759-0.054l67.292,66.617c2.986,2.956,3.011,7.773,0.054,10.759  C399.626,292.793,397.667,293.546,395.707,293.546z" data-original="#000000" class="active-path" data-old_color="#F9F9F9" fill="#FBFBFB"/><path d="M368.693,320.834c-1.935,0-3.869-0.733-5.352-2.201l-67.292-66.617c-2.986-2.956-3.011-7.773-0.054-10.759  c2.957-2.986,7.773-3.01,10.759-0.054l67.292,66.617c2.986,2.956,3.011,7.773,0.055,10.759  C372.612,320.081,370.652,320.834,368.693,320.834z" data-original="#000000" class="active-path" data-old_color="#F9F9F9" fill="#FBFBFB"/><path d="M341.683,348.117c-1.935,0-3.869-0.733-5.352-2.201l-67.291-66.617c-2.986-2.956-3.011-7.773-0.055-10.759  c2.957-2.987,7.774-3.01,10.759-0.054l67.291,66.617c2.986,2.956,3.011,7.773,0.054,10.759  C345.602,347.364,343.643,348.117,341.683,348.117z" data-original="#000000" class="active-path" data-old_color="#F9F9F9" fill="#FBFBFB"/><path d="M314.669,375.405c-1.935,0-3.869-0.733-5.352-2.201l-67.292-66.617c-2.986-2.956-3.011-7.773-0.054-10.759  c2.957-2.987,7.774-3.01,10.759-0.055l67.292,66.617c2.986,2.956,3.011,7.773,0.055,10.759  C318.588,374.652,316.628,375.405,314.669,375.405z" data-original="#000000" class="active-path" data-old_color="#F9F9F9" fill="#FBFBFB"/><path d="M287.575,402.773c-1.935,0-3.869-0.733-5.352-2.201l-67.292-66.617c-2.986-2.956-3.011-7.773-0.054-10.759  s7.774-3.01,10.759-0.054l67.292,66.617c2.986,2.956,3.011,7.773,0.055,10.759C291.494,402.02,289.534,402.773,287.575,402.773z" data-original="#000000" class="active-path" data-old_color="#F9F9F9" fill="#FBFBFB"/><path d="M260.56,430.061c-1.935,0-3.869-0.733-5.352-2.201l-67.292-66.617c-2.986-2.956-3.011-7.773-0.054-10.759  c2.957-2.987,7.774-3.01,10.759-0.055l67.292,66.617c2.986,2.956,3.011,7.773,0.055,10.759  C264.479,429.308,262.52,430.061,260.56,430.061z" data-original="#000000" class="active-path" data-old_color="#F9F9F9" fill="#FBFBFB"/><path d="M233.636,457.258c-1.935,0-3.869-0.733-5.352-2.201l-67.292-66.617c-2.986-2.956-3.011-7.773-0.054-10.759  c2.957-2.987,7.773-3.01,10.759-0.055l67.292,66.617c2.986,2.956,3.011,7.773,0.054,10.759  C237.555,456.505,235.595,457.258,233.636,457.258z" data-original="#000000" class="active-path" data-old_color="#F9F9F9" fill="#FBFBFB"/><path d="M206.621,484.547c-1.935,0-3.869-0.733-5.352-2.201l-67.292-66.617c-2.986-2.956-3.011-7.773-0.054-10.759  s7.774-3.01,10.759-0.054l67.292,66.617c2.986,2.956,3.011,7.773,0.054,10.759C210.54,483.794,208.581,484.547,206.621,484.547z" data-original="#000000" class="active-path" data-old_color="#F9F9F9" fill="#FBFBFB"/><path d="M179.442,512c-1.935,0-3.869-0.733-5.352-2.201l-67.291-66.617c-2.986-2.956-3.011-7.773-0.054-10.759  c2.957-2.987,7.773-3.009,10.759-0.054l67.291,66.617c2.986,2.956,3.011,7.773,0.054,10.759  C183.361,511.247,181.402,512,179.442,512z" data-original="#000000" class="active-path" data-old_color="#F9F9F9" fill="#FBFBFB"/><path d="M476.571,211.862c-0.988,0-1.99-0.193-2.956-0.601l-93.967-39.671c-3.871-1.634-5.684-6.096-4.05-9.968  c1.635-3.871,6.101-5.683,9.968-4.05l93.967,39.671c3.871,1.634,5.684,6.096,4.05,9.968  C482.356,210.116,479.537,211.862,476.571,211.862z" data-original="#000000" class="active-path" data-old_color="#F9F9F9" fill="#FBFBFB"/><path d="M449.559,239.147c-0.987,0-1.99-0.193-2.956-0.601l-93.967-39.67c-3.871-1.634-5.684-6.096-4.05-9.968  c1.635-3.871,6.097-5.684,9.968-4.05l93.967,39.67c3.871,1.634,5.684,6.096,4.05,9.968  C455.344,237.401,452.525,239.147,449.559,239.147z" data-original="#000000" class="active-path" data-old_color="#F9F9F9" fill="#FBFBFB"/><path d="M422.548,266.433c-0.987,0-1.99-0.193-2.956-0.601l-93.968-39.671c-3.871-1.634-5.684-6.096-4.05-9.968  c1.635-3.87,6.098-5.684,9.968-4.05l93.968,39.671c3.871,1.634,5.684,6.096,4.05,9.968  C428.333,264.687,425.513,266.433,422.548,266.433z" data-original="#000000" class="active-path" data-old_color="#F9F9F9" fill="#FBFBFB"/><path d="M395.535,293.718c-0.987,0-1.99-0.193-2.956-0.601l-93.967-39.67c-3.871-1.634-5.684-6.096-4.05-9.968  c1.635-3.87,6.098-5.684,9.968-4.05l93.967,39.67c3.871,1.634,5.684,6.096,4.05,9.968  C401.32,291.972,398.501,293.718,395.535,293.718z" data-original="#000000" class="active-path" data-old_color="#F9F9F9" fill="#FBFBFB"/><path d="M368.523,321.004c-0.988,0-1.99-0.193-2.956-0.601L271.6,280.732c-3.871-1.634-5.684-6.096-4.05-9.968  c1.635-3.871,6.1-5.683,9.968-4.05l93.967,39.671c3.871,1.634,5.684,6.096,4.05,9.968  C374.309,319.258,371.489,321.004,368.523,321.004z" data-original="#000000" class="active-path" data-old_color="#F9F9F9" fill="#FBFBFB"/><path d="M341.512,348.289c-0.987,0-1.99-0.193-2.956-0.601l-93.968-39.671c-3.871-1.634-5.684-6.096-4.05-9.968  c1.635-3.871,6.097-5.685,9.968-4.05l93.968,39.671c3.871,1.634,5.684,6.096,4.05,9.968  C347.297,346.543,344.478,348.289,341.512,348.289z" data-original="#000000" class="active-path" data-old_color="#F9F9F9" fill="#FBFBFB"/><path d="M314.499,375.575c-0.988,0-1.99-0.193-2.956-0.601l-93.967-39.671c-3.871-1.634-5.684-6.096-4.05-9.968  c1.635-3.871,6.1-5.684,9.968-4.05l93.967,39.671c3.871,1.634,5.684,6.096,4.05,9.968  C320.285,373.829,317.465,375.575,314.499,375.575z" data-original="#000000" class="active-path" data-old_color="#F9F9F9" fill="#FBFBFB"/><path d="M287.488,402.86c-0.987,0-1.99-0.193-2.956-0.601l-93.968-39.671c-3.871-1.634-5.684-6.096-4.05-9.968  c1.635-3.871,6.098-5.684,9.968-4.05l93.968,39.671c3.871,1.634,5.684,6.096,4.05,9.968  C293.273,401.114,290.454,402.86,287.488,402.86z" data-original="#000000" class="active-path" data-old_color="#F9F9F9" fill="#FBFBFB"/><path d="M260.475,430.145c-0.987,0-1.99-0.193-2.956-0.601l-93.967-39.67c-3.871-1.634-5.684-6.096-4.05-9.968  c1.635-3.871,6.098-5.684,9.968-4.05l93.967,39.67c3.871,1.634,5.684,6.096,4.05,9.968  C266.26,428.399,263.441,430.145,260.475,430.145z" data-original="#000000" class="active-path" data-old_color="#F9F9F9" fill="#FBFBFB"/><path d="M233.464,457.431c-0.988,0-1.99-0.193-2.956-0.601l-93.967-39.671c-3.871-1.634-5.684-6.096-4.05-9.968  c1.635-3.871,6.101-5.684,9.968-4.05l93.967,39.671c3.871,1.634,5.684,6.096,4.05,9.968  C239.249,455.685,236.43,457.431,233.464,457.431z" data-original="#000000" class="active-path" data-old_color="#F9F9F9" fill="#FBFBFB"/><path d="M206.452,484.716c-0.987,0-1.99-0.193-2.956-0.601l-93.968-39.67c-3.871-1.634-5.684-6.096-4.05-9.968  c1.635-3.87,6.097-5.684,9.968-4.05l93.968,39.67c3.871,1.634,5.684,6.096,4.05,9.968  C212.237,482.97,209.418,484.716,206.452,484.716z" data-original="#000000" class="active-path" data-old_color="#F9F9F9" fill="#FBFBFB"/></g> </svg>
